<?xml version="1.0" encoding="utf-8"?>
<!-- Generator: Adobe Illustrator 27.5.0, SVG Export Plug-In . SVG Version: 6.00 Build 0)  -->
<svg version="1.1" xmlns="http://www.w3.org/2000/svg" xmlns:xlink="http://www.w3.org/1999/xlink" x="0px" y="0px"
	 viewBox="0 0 500 500" style="enable-background:new 0 0 500 500;" xml:space="preserve">
<g id="BACKGROUND">
	<g>
		<g>
			<defs>
				<rect id="SVGID_1_" y="-0.001" width="500" height="500"/>
			</defs>
			<use xlink:href="#SVGID_1_"  style="overflow:visible;fill:#A6D181;"/>
			<clipPath id="SVGID_00000089558958741147406660000013122701996866461885_">
				<use xlink:href="#SVGID_1_"  style="overflow:visible;"/>
			</clipPath>
		</g>
	</g>
	<rect y="-0.001" style="fill:#FFFFFF;" width="500" height="500"/>
</g>
<g id="OBJECTS">
	<g>
		<g>
			<g>
				<rect y="0" style="fill:#4A6EAA;" width="500" height="500"/>
			</g>
		</g>
	</g>
	<g>
		<path style="fill:#DBDCDD;" d="M451.966,387.197H49.809c-7.636,0-13.827-6.19-13.827-13.826V126.63
			c0-7.636,6.19-13.826,13.827-13.826h402.156c3.818,0,7.275,1.548,9.777,4.05c2.502,2.502,4.05,5.959,4.05,9.777v246.741
			C465.792,381.007,459.602,387.197,451.966,387.197z"/>
		<rect x="52.782" y="128.448" style="fill:#FFFFFF;" width="396.21" height="243.1"/>
		<rect x="130.108" y="350.64" style="fill:#DBDCDD;" width="141.156" height="18.382"/>
		<rect x="52.779" y="128.451" style="fill:#4A6EAA;" width="396.217" height="36.33"/>
		<path style="fill:#FFFFFF;" d="M413.748,156.142h-84.837c-5.261,0-9.526-4.265-9.526-9.526l0,0c0-3.196,1.574-6.024,3.989-7.752
			c1.561-1.117,3.472-1.774,5.537-1.774h84.837c5.261,0,9.526,4.265,9.526,9.526l0,0c0,2.826-1.23,5.365-3.185,7.109
			C418.405,155.228,416.183,156.142,413.748,156.142z"/>
		<g>
			<g>
				<path style="fill:#4A6EAA;" d="M328.965,151.479c-1.329,0-2.659-0.506-3.671-1.518c-2.024-2.024-2.024-5.317,0-7.341
					c2.023-2.024,5.318-2.024,7.342,0c2.024,2.024,2.024,5.317,0,7.341C331.624,150.973,330.294,151.479,328.965,151.479z
					 M328.965,143.101c-0.817,0-1.635,0.311-2.257,0.933c-1.244,1.244-1.244,3.269,0,4.513c1.244,1.244,3.27,1.244,4.514,0
					c1.244-1.244,1.244-3.268,0-4.513C330.6,143.412,329.783,143.101,328.965,143.101z"/>
			</g>
			<g>
				<path style="fill:#4A6EAA;" d="M335.948,154.273c-0.256,0-0.512-0.098-0.707-0.293l-3.902-3.902
					c-0.391-0.391-0.391-1.023,0-1.414c0.391-0.391,1.023-0.391,1.414,0l3.902,3.902c0.391,0.391,0.391,1.023,0,1.414
					C336.459,154.175,336.203,154.273,335.948,154.273z"/>
			</g>
		</g>
		<circle style="fill:#FFFFFF;" cx="77.336" cy="146.616" r="9.526"/>
		<circle style="fill:#FFFFFF;" cx="109.659" cy="146.616" r="9.526"/>
		<circle style="fill:#FFFFFF;" cx="141.982" cy="146.616" r="9.526"/>
	</g>
	<g>
		<path style="fill:#DBDCDD;" d="M415.442,306.858c-6.76-7.98-16.63-12.56-27.08-12.56H233.41c0.967,0.452,1.863,0.962,1.714,2.16
			c-0.065,0.517-0.363,0.955-0.79,1.341c-0.145,0.131-0.304,0.255-0.476,0.373c-0.002,0.001-0.004,0.003-0.007,0.005
			c-0.166,0.114-0.343,0.223-0.529,0.328c-0.011,0.006-0.022,0.013-0.033,0.019c-0.174,0.097-0.355,0.19-0.54,0.279
			c-0.023,0.011-0.045,0.023-0.069,0.034c-0.201,0.096-0.407,0.188-0.615,0.276c0.894,0.178,1.786,0.376,2.643,0.725
			c0.109,0.044,0.209,0.101,0.301,0.165c0.015,0.011,0.027,0.024,0.042,0.036c0.076,0.058,0.149,0.12,0.21,0.19
			c0.005,0.006,0.009,0.013,0.014,0.018c0.138,0.163,0.235,0.352,0.278,0.551l0,0c0.075,0.347-0.005,0.723-0.315,1.047
			c-1.095,1.144-2.891,1.859-4.638,2.453h157.762c7.5,0,14.59,3.29,19.45,9.02c3.89,4.59,6.04,10.44,6.04,16.47
			c0,14.05-11.44,25.49-25.49,25.49H311.29v-4.118h-26.776v1.15v0.629v0.833v0.584v0.417v0.771v0.417v1.148v0.555v1.105v0.555v0.678
			v0.141v1.126v1.041v0.501v0.52v1.083v0.375v1.083v0.917v0.5v0.375v0.578v1.15h26.776v-4.113h77.072
			c19.57,0,35.49-15.92,35.49-35.49C423.852,321.398,420.862,313.248,415.442,306.858z"/>
		<g>
			<g>
				<path style="fill:#DBDCDD;" d="M207.572,300.888c0.55,0.2,1.11,0.35,1.67,0.51c-0.9,0.99-1.83,2.05-2.83,2.9H52.782v-10h155.17
					c0.2,0.33,0.43,0.64,0.7,0.95c0.55,0.63,1.45,1.08,2.18,1.6c-0.61,0.33-1.23,0.64-1.85,0.95c-0.57,0.29-1.14,0.58-1.7,0.9
					c-0.11,0.06-0.21,0.14-0.29,0.22c-0.03,0.03-0.04,0.07-0.06,0.1c-0.05,0.06-0.09,0.12-0.12,0.18c-0.02,0.05-0.03,0.1-0.05,0.15
					c-0.02,0.05-0.03,0.1-0.04,0.15c-0.01,0.06-0.01,0.13-0.01,0.2c0,0.03,0,0.07,0.01,0.1c0.01,0.08,0.02,0.16,0.05,0.24
					c0.01,0.02,0.01,0.04,0.01,0.05c0.04,0.09,0.08,0.18,0.14,0.27c0.12,0.18,0.28,0.33,0.47,0.44
					C207.452,300.828,207.502,300.868,207.572,300.888z"/>
			</g>
		</g>
		<g>
			<g>
				<path style="fill:#3F4F5B;" d="M418.936,303.358c-6.76-7.98-16.63-12.56-27.08-12.56H236.904
					c0.967,0.452,1.863,0.962,1.714,2.16c-0.153,1.221-1.567,2.024-3.059,2.655c0.894,0.178,1.786,0.376,2.643,0.725
					c0.824,0.335,1.208,1.299,0.53,2.008c-1.095,1.144-2.891,1.859-4.638,2.453h157.762c7.5,0,14.59,3.29,19.45,9.02
					c3.89,4.59,6.04,10.44,6.04,16.47c0,14.05-11.44,25.49-25.49,25.49h-77.44v10h77.44c19.57,0,35.49-15.92,35.49-35.49
					C427.346,317.898,424.356,309.748,418.936,303.358z"/>
				<path style="fill:#3F4F5B;" d="M212.74,297.897c-0.56-0.164-1.125-0.312-1.674-0.507c-0.938-0.333-1.238-1.655-0.287-2.196
					c1.165-0.663,2.38-1.21,3.548-1.851c-0.732-0.512-1.631-0.963-2.182-1.597c-0.268-0.308-0.497-0.623-0.7-0.949H52.782v10h157.12
					C210.902,299.951,211.837,298.884,212.74,297.897z"/>
			</g>
			<g>
				<path style="fill:#546875;" d="M210.779,295.195c0.559-0.318,1.13-0.608,1.702-0.896H52.782v3H210.89
					C210.1,296.869,209.893,295.699,210.779,295.195z"/>
				<path style="fill:#546875;" d="M416.266,305.618c-6.09-7.19-14.99-11.32-24.41-11.32H237.828
					c-0.582,0.526-1.408,0.95-2.269,1.315c0.894,0.178,1.786,0.376,2.643,0.725c0.447,0.182,0.756,0.55,0.845,0.961h152.809
					c8.53,0,16.6,3.74,22.12,10.26c4.43,5.22,6.87,11.87,6.87,18.73c0,15.98-13.01,28.99-28.99,28.99h-77.44v3h77.44
					c17.64,0,31.99-14.35,31.99-31.99C423.846,318.718,421.146,311.378,416.266,305.618z"/>
			</g>
			<g>
				<rect x="288.009" y="347.66" style="fill:#546875;" width="26.776" height="18.231"/>
			</g>
			<g>
				<rect x="288.009" y="348.81" style="fill:#7D929E;" width="8.463" height="15.932"/>
			</g>
			<g>
				<rect x="288.009" y="360.914" style="fill:#546875;" width="8.463" height="0.375"/>
			</g>
			<g>
				<rect x="288.009" y="349.439" style="fill:#546875;" width="8.463" height="0.833"/>
			</g>
			<g>
				<rect x="288.009" y="353.609" style="fill:#546875;" width="8.463" height="0.555"/>
			</g>
			<g>
				<rect x="288.009" y="355.269" style="fill:#546875;" width="8.463" height="0.555"/>
			</g>
			<g>
				<rect x="288.009" y="357.769" style="fill:#546875;" width="8.463" height="1.041"/>
			</g>
			<g>
				<rect x="288.009" y="359.311" style="fill:#546875;" width="8.463" height="0.52"/>
			</g>
			<g>
				<rect x="288.009" y="362.372" style="fill:#546875;" width="8.463" height="0.917"/>
			</g>
			<g>
				<rect x="288.009" y="363.789" style="fill:#546875;" width="8.463" height="0.375"/>
			</g>
			<g>
				<rect x="288.009" y="350.856" style="fill:#546875;" width="8.463" height="0.417"/>
			</g>
			<g>
				<rect x="288.009" y="356.502" style="fill:#546875;" width="8.463" height="0.141"/>
			</g>
			<g>
				<rect x="288.009" y="352.044" style="fill:#546875;" width="8.463" height="0.417"/>
			</g>
			<g>
				<rect x="293.805" y="354.026" style="fill:#93A8B2;" width="20.98" height="5.5"/>
			</g>
		</g>
		<g>
			<polygon style="fill:#3F4F5B;" points="228.384,286.667 235.724,276.74 237.697,279.022 251.165,261.986 237.803,276.275 
				235.304,272.695 			"/>
			<polygon style="fill:#3F4F5B;" points="221.115,284.562 217.277,278.629 216.069,279.862 208.985,269.65 216.106,278.289 
				217.661,276.334 			"/>
			<polygon style="fill:#3F4F5B;" points="219.185,305.778 213.045,314.82 211.219,312.872 199.911,328.422 211.223,315.306 
				213.561,318.384 			"/>
			<polygon style="fill:#3F4F5B;" points="227.679,307.688 232.172,313.57 233.333,312.184 241.566,322.27 233.422,313.829 
				231.958,315.999 			"/>
		</g>
	</g>
	<g>
		<rect x="133.796" y="347.509" style="fill:#546875;" width="141.156" height="18.382"/>
		<g>
			
				<text transform="matrix(1 0 0 1 139.9798 359.6059)" style="fill:#FFFFFF; font-family:'Montserrat-SemiBold'; font-size:8.9981px; letter-spacing:1;">BACK TO MAIN PAGE</text>
		</g>
	</g>
	<g>
		<g>
			
				<text transform="matrix(1 0 0 1 113.0796 226.7574)" style="fill:#D8766F; font-family:'Montserrat-SemiBold'; font-size:39.6188px; letter-spacing:3;">404 ERROR</text>
		</g>
		
			<text transform="matrix(1 0 0 1 114.0368 250.0001)" style="fill:#414A51; font-family:'Montserrat-SemiBold'; font-size:15.0453px; letter-spacing:3;">SORRY, PAGE NOT FOUND</text>
	</g>
</g>
<g id="DESIGNED_BY_FREEPIK">
	<g>
		<g>
			<g>
				<path style="fill:#FFFFFF;" d="M178.766,483.928v-0.16c-0.218,0.249-0.432,0.452-0.644,0.608
					c-0.212,0.157-0.441,0.276-0.689,0.356c-0.247,0.082-0.517,0.122-0.81,0.122c-0.388,0-0.747-0.082-1.078-0.246
					c-0.33-0.164-0.616-0.399-0.857-0.704c-0.242-0.305-0.425-0.662-0.549-1.074c-0.124-0.412-0.187-0.857-0.187-1.335
					c0-1.013,0.247-1.804,0.742-2.369c0.495-0.565,1.146-0.848,1.953-0.848c0.467,0,0.861,0.081,1.181,0.24
					c0.321,0.16,0.633,0.408,0.938,0.739v-2.392c0-0.333,0.066-0.583,0.199-0.754c0.132-0.17,0.321-0.255,0.567-0.255
					c0.245,0,0.434,0.078,0.567,0.234c0.133,0.157,0.199,0.386,0.199,0.691v7.147c0,0.309-0.071,0.54-0.214,0.695
					c-0.143,0.154-0.326,0.231-0.552,0.231c-0.221,0-0.405-0.08-0.549-0.24C178.838,484.453,178.766,484.225,178.766,483.928z
					 M175.578,481.548c0,0.439,0.068,0.813,0.205,1.122c0.137,0.309,0.324,0.541,0.561,0.697c0.238,0.157,0.497,0.236,0.777,0.236
					c0.285,0,0.545-0.074,0.781-0.223c0.235-0.148,0.423-0.376,0.564-0.682c0.141-0.307,0.211-0.691,0.211-1.149
					c0-0.432-0.07-0.803-0.211-1.114c-0.14-0.31-0.33-0.547-0.57-0.712c-0.24-0.164-0.502-0.245-0.786-0.245
					c-0.297,0-0.562,0.084-0.796,0.252c-0.233,0.168-0.414,0.409-0.543,0.724C175.642,480.767,175.578,481.132,175.578,481.548z"/>
				<path style="fill:#FFFFFF;" d="M185.912,481.958h-3.17c0.004,0.367,0.078,0.692,0.223,0.973
					c0.144,0.281,0.336,0.493,0.576,0.635c0.24,0.143,0.504,0.213,0.792,0.213c0.194,0,0.371-0.022,0.531-0.067
					c0.161-0.046,0.316-0.117,0.466-0.214c0.15-0.096,0.289-0.201,0.415-0.312c0.126-0.111,0.29-0.262,0.493-0.452
					c0.083-0.071,0.202-0.107,0.357-0.107c0.166,0,0.3,0.046,0.403,0.137c0.103,0.091,0.155,0.219,0.155,0.386
					c0,0.146-0.058,0.317-0.172,0.513c-0.116,0.196-0.289,0.384-0.52,0.564c-0.232,0.18-0.522,0.329-0.873,0.448
					c-0.35,0.119-0.753,0.178-1.208,0.178c-1.04,0-1.85-0.297-2.428-0.891c-0.578-0.593-0.867-1.399-0.867-2.416
					c0-0.479,0.071-0.923,0.213-1.332c0.143-0.41,0.351-0.761,0.623-1.054c0.273-0.293,0.609-0.517,1.01-0.674
					c0.399-0.156,0.843-0.234,1.33-0.234c0.633,0,1.176,0.133,1.629,0.4c0.454,0.267,0.793,0.612,1.019,1.035
					c0.225,0.424,0.338,0.856,0.338,1.294c0,0.408-0.117,0.672-0.35,0.793C186.664,481.897,186.335,481.958,185.912,481.958z
					 M182.742,481.037h2.939c-0.039-0.554-0.189-0.969-0.448-1.244c-0.259-0.275-0.6-0.413-1.024-0.413
					c-0.404,0-0.736,0.139-0.994,0.418C182.955,480.078,182.798,480.491,182.742,481.037z"/>
				<path style="fill:#FFFFFF;" d="M193.296,482.734c0,0.447-0.108,0.831-0.327,1.149c-0.217,0.319-0.539,0.56-0.965,0.724
					c-0.425,0.164-0.943,0.246-1.552,0.246c-0.582,0-1.08-0.089-1.496-0.267c-0.415-0.178-0.722-0.401-0.92-0.667
					c-0.198-0.268-0.297-0.535-0.297-0.805c0-0.178,0.063-0.33,0.19-0.457c0.126-0.126,0.287-0.19,0.481-0.19
					c0.17,0,0.3,0.042,0.391,0.125c0.091,0.083,0.178,0.2,0.261,0.35c0.166,0.29,0.366,0.504,0.597,0.648
					c0.231,0.142,0.546,0.214,0.947,0.214c0.324,0,0.591-0.073,0.798-0.217c0.208-0.145,0.311-0.31,0.311-0.496
					c0-0.285-0.107-0.492-0.324-0.622c-0.216-0.131-0.571-0.256-1.066-0.375c-0.558-0.138-1.012-0.284-1.362-0.436
					c-0.35-0.151-0.63-0.353-0.84-0.602c-0.21-0.25-0.315-0.557-0.315-0.92c0-0.324,0.097-0.631,0.291-0.92
					c0.194-0.288,0.48-0.519,0.858-0.691c0.377-0.173,0.833-0.259,1.368-0.259c0.42,0,0.797,0.043,1.131,0.131
					c0.335,0.086,0.614,0.204,0.837,0.35c0.224,0.146,0.394,0.308,0.51,0.486c0.117,0.178,0.175,0.352,0.175,0.523
					c0,0.185-0.062,0.338-0.187,0.457c-0.124,0.118-0.301,0.178-0.532,0.178c-0.166,0-0.308-0.048-0.424-0.143
					c-0.117-0.095-0.25-0.237-0.401-0.427c-0.123-0.158-0.266-0.285-0.433-0.38c-0.166-0.095-0.392-0.142-0.677-0.142
					c-0.293,0-0.536,0.062-0.73,0.187c-0.194,0.124-0.291,0.279-0.291,0.465c0,0.171,0.071,0.31,0.213,0.419
					c0.143,0.109,0.334,0.2,0.576,0.27c0.242,0.071,0.573,0.158,0.997,0.261c0.502,0.123,0.913,0.27,1.232,0.439
					c0.318,0.17,0.56,0.371,0.725,0.603C193.214,482.174,193.296,482.438,193.296,482.734z"/>
				<path style="fill:#FFFFFF;" d="M194.951,477.511c-0.225,0-0.418-0.07-0.579-0.208c-0.16-0.138-0.24-0.334-0.24-0.588
					c0-0.23,0.082-0.418,0.246-0.567c0.164-0.149,0.355-0.223,0.573-0.223c0.21,0,0.396,0.067,0.558,0.202
					c0.162,0.135,0.244,0.33,0.244,0.588c0,0.25-0.08,0.444-0.238,0.585C195.357,477.44,195.169,477.511,194.951,477.511z
					 M195.753,479.185v4.683c0,0.325-0.077,0.571-0.232,0.737c-0.155,0.166-0.35,0.249-0.588,0.249
					c-0.238,0-0.431-0.085-0.579-0.255c-0.149-0.17-0.222-0.414-0.222-0.731v-4.636c0-0.32,0.074-0.562,0.222-0.724
					c0.148-0.162,0.341-0.243,0.579-0.243c0.238,0,0.433,0.081,0.588,0.243C195.676,478.67,195.753,478.896,195.753,479.185z"/>
				<path style="fill:#FFFFFF;" d="M202.852,479.452v4.707c0,0.538-0.058,1.001-0.173,1.39c-0.114,0.387-0.298,0.708-0.552,0.961
					c-0.253,0.253-0.585,0.441-0.994,0.563c-0.41,0.123-0.919,0.184-1.529,0.184c-0.558,0-1.057-0.078-1.496-0.234
					c-0.439-0.157-0.777-0.358-1.015-0.605c-0.237-0.247-0.356-0.502-0.356-0.763c0-0.198,0.067-0.359,0.202-0.483
					c0.134-0.125,0.297-0.187,0.486-0.187c0.237,0,0.445,0.105,0.623,0.314c0.087,0.107,0.177,0.215,0.27,0.324
					c0.093,0.109,0.197,0.202,0.309,0.28c0.113,0.076,0.248,0.134,0.406,0.171c0.158,0.037,0.341,0.056,0.546,0.056
					c0.42,0,0.745-0.058,0.977-0.175c0.232-0.117,0.394-0.28,0.487-0.49c0.093-0.209,0.147-0.433,0.163-0.673
					c0.016-0.24,0.027-0.624,0.035-1.155c-0.25,0.349-0.537,0.615-0.864,0.796c-0.326,0.182-0.715,0.273-1.166,0.273
					c-0.542,0-1.016-0.139-1.422-0.416c-0.405-0.277-0.717-0.665-0.934-1.163c-0.218-0.499-0.326-1.074-0.326-1.727
					c0-0.487,0.066-0.927,0.198-1.318c0.133-0.392,0.322-0.723,0.567-0.992c0.245-0.269,0.528-0.472,0.849-0.608
					c0.32-0.136,0.673-0.204,1.057-0.204c0.459,0,0.857,0.089,1.193,0.264c0.336,0.177,0.649,0.453,0.938,0.829v-0.22
					c0-0.281,0.069-0.498,0.208-0.653c0.139-0.154,0.317-0.231,0.535-0.231c0.313,0,0.52,0.103,0.623,0.306
					C202.801,478.774,202.852,479.068,202.852,479.452z M198.157,481.506c0,0.657,0.143,1.153,0.43,1.49
					c0.287,0.337,0.658,0.505,1.113,0.505c0.269,0,0.523-0.073,0.762-0.217c0.24-0.145,0.435-0.363,0.585-0.653
					c0.15-0.291,0.226-0.644,0.226-1.06c0-0.66-0.145-1.176-0.436-1.543c-0.291-0.368-0.674-0.552-1.149-0.552
					c-0.463,0-0.834,0.176-1.113,0.529C198.296,480.356,198.157,480.857,198.157,481.506z"/>
				<path style="fill:#FFFFFF;" d="M205.428,479.161v0.196c0.285-0.376,0.596-0.652,0.935-0.828
					c0.338-0.176,0.727-0.264,1.166-0.264c0.428,0,0.809,0.093,1.146,0.279c0.336,0.186,0.588,0.449,0.753,0.789
					c0.107,0.198,0.176,0.413,0.208,0.642c0.032,0.23,0.048,0.522,0.048,0.879v3.015c0,0.325-0.075,0.571-0.223,0.737
					c-0.148,0.166-0.341,0.249-0.579,0.249c-0.242,0-0.437-0.085-0.588-0.255c-0.151-0.17-0.226-0.414-0.226-0.731v-2.701
					c0-0.534-0.074-0.943-0.223-1.226c-0.149-0.283-0.444-0.425-0.888-0.425c-0.288,0-0.552,0.086-0.789,0.258
					c-0.237,0.173-0.412,0.41-0.522,0.71c-0.079,0.242-0.119,0.692-0.119,1.353v2.03c0,0.328-0.077,0.576-0.228,0.74
					c-0.152,0.164-0.349,0.246-0.59,0.246c-0.234,0-0.425-0.085-0.576-0.255c-0.15-0.17-0.225-0.414-0.225-0.731v-4.683
					c0-0.309,0.067-0.54,0.202-0.692c0.135-0.152,0.319-0.228,0.552-0.228c0.143,0,0.272,0.034,0.387,0.101
					c0.114,0.068,0.207,0.169,0.276,0.302C205.393,478.803,205.428,478.968,205.428,479.161z"/>
				<path style="fill:#FFFFFF;" d="M215.287,481.958h-3.17c0.004,0.367,0.078,0.692,0.223,0.973
					c0.144,0.281,0.336,0.493,0.576,0.635c0.239,0.143,0.503,0.213,0.792,0.213c0.194,0,0.371-0.022,0.532-0.067
					c0.16-0.046,0.315-0.117,0.466-0.214c0.15-0.096,0.288-0.201,0.416-0.312c0.126-0.111,0.29-0.262,0.492-0.452
					c0.083-0.071,0.202-0.107,0.356-0.107c0.166,0,0.301,0.046,0.404,0.137c0.103,0.091,0.154,0.219,0.154,0.386
					c0,0.146-0.057,0.317-0.172,0.513c-0.115,0.196-0.288,0.384-0.52,0.564c-0.232,0.18-0.522,0.329-0.872,0.448
					c-0.35,0.119-0.753,0.178-1.208,0.178c-1.041,0-1.85-0.297-2.428-0.891c-0.577-0.593-0.866-1.399-0.866-2.416
					c0-0.479,0.071-0.923,0.214-1.332c0.143-0.41,0.351-0.761,0.624-1.054c0.273-0.293,0.609-0.517,1.009-0.674
					c0.399-0.156,0.843-0.234,1.33-0.234c0.633,0,1.176,0.133,1.629,0.4c0.453,0.267,0.793,0.612,1.019,1.035
					c0.225,0.424,0.339,0.856,0.339,1.294c0,0.408-0.117,0.672-0.35,0.793C216.039,481.897,215.711,481.958,215.287,481.958z
					 M212.117,481.037h2.938c-0.039-0.554-0.189-0.969-0.448-1.244c-0.259-0.275-0.601-0.413-1.024-0.413
					c-0.404,0-0.736,0.139-0.995,0.418C212.329,480.078,212.173,480.491,212.117,481.037z"/>
				<path style="fill:#FFFFFF;" d="M221.893,483.928v-0.16c-0.218,0.249-0.432,0.452-0.644,0.608
					c-0.212,0.157-0.441,0.276-0.688,0.356c-0.247,0.082-0.517,0.122-0.81,0.122c-0.389,0-0.747-0.082-1.078-0.246
					c-0.331-0.164-0.616-0.399-0.858-0.704c-0.242-0.305-0.424-0.662-0.549-1.074c-0.125-0.412-0.187-0.857-0.187-1.335
					c0-1.013,0.247-1.804,0.742-2.369c0.495-0.565,1.146-0.848,1.953-0.848c0.467,0,0.861,0.081,1.181,0.24
					c0.32,0.16,0.633,0.408,0.938,0.739v-2.392c0-0.333,0.067-0.583,0.199-0.754c0.132-0.17,0.322-0.255,0.567-0.255
					c0.245,0,0.434,0.078,0.567,0.234c0.132,0.157,0.199,0.386,0.199,0.691v7.147c0,0.309-0.071,0.54-0.214,0.695
					c-0.143,0.154-0.326,0.231-0.552,0.231c-0.222,0-0.405-0.08-0.549-0.24C221.965,484.453,221.893,484.225,221.893,483.928z
					 M218.706,481.548c0,0.439,0.068,0.813,0.204,1.122c0.136,0.309,0.324,0.541,0.561,0.697c0.237,0.157,0.496,0.236,0.777,0.236
					c0.285,0,0.546-0.074,0.781-0.223c0.236-0.148,0.424-0.376,0.564-0.682c0.141-0.307,0.211-0.691,0.211-1.149
					c0-0.432-0.07-0.803-0.211-1.114c-0.14-0.31-0.33-0.547-0.57-0.712c-0.24-0.164-0.502-0.245-0.787-0.245
					c-0.296,0-0.562,0.084-0.795,0.252c-0.233,0.168-0.415,0.409-0.543,0.724C218.77,480.767,218.706,481.132,218.706,481.548z"/>
				<path style="fill:#FFFFFF;" d="M228.517,476.781v2.475c0.304-0.316,0.615-0.559,0.932-0.727
					c0.316-0.168,0.709-0.252,1.176-0.252c0.538,0,1.01,0.128,1.416,0.382c0.405,0.256,0.72,0.626,0.944,1.111
					c0.223,0.484,0.336,1.06,0.336,1.725c0,0.491-0.063,0.94-0.187,1.35c-0.125,0.409-0.306,0.765-0.543,1.065
					c-0.238,0.301-0.525,0.534-0.864,0.698c-0.339,0.164-0.712,0.246-1.119,0.246c-0.25,0-0.484-0.029-0.703-0.089
					c-0.22-0.059-0.407-0.137-0.561-0.234c-0.154-0.096-0.286-0.197-0.395-0.3c-0.109-0.103-0.253-0.258-0.431-0.463v0.16
					c0,0.305-0.073,0.535-0.22,0.692c-0.146,0.156-0.332,0.234-0.558,0.234c-0.23,0-0.413-0.078-0.549-0.234
					c-0.137-0.157-0.205-0.388-0.205-0.692v-7.076c0-0.328,0.066-0.577,0.198-0.745c0.133-0.168,0.318-0.252,0.555-0.252
					c0.25,0,0.441,0.08,0.576,0.24C228.449,476.256,228.517,476.483,228.517,476.781z M228.594,481.595
					c0,0.645,0.147,1.14,0.442,1.486c0.295,0.347,0.682,0.521,1.161,0.521c0.407,0,0.759-0.177,1.053-0.532
					c0.295-0.355,0.442-0.862,0.442-1.523c0-0.427-0.061-0.796-0.184-1.104c-0.123-0.309-0.297-0.547-0.522-0.715
					c-0.226-0.168-0.489-0.252-0.79-0.252c-0.309,0-0.584,0.084-0.825,0.252c-0.242,0.168-0.431,0.411-0.57,0.73
					C228.663,480.776,228.594,481.156,228.594,481.595z"/>
				<path style="fill:#FFFFFF;" d="M235.42,485.056l0.148-0.363l-1.995-5.022c-0.122-0.288-0.184-0.499-0.184-0.629
					c0-0.139,0.036-0.267,0.107-0.385c0.071-0.119,0.169-0.214,0.294-0.285c0.125-0.072,0.255-0.107,0.389-0.107
					c0.233,0,0.409,0.074,0.529,0.223c0.119,0.148,0.223,0.361,0.314,0.638l1.371,3.989l1.3-3.71c0.102-0.3,0.196-0.536,0.279-0.706
					c0.083-0.17,0.171-0.285,0.264-0.344c0.093-0.06,0.225-0.09,0.395-0.09c0.123,0,0.24,0.032,0.353,0.098
					c0.113,0.065,0.199,0.153,0.261,0.264c0.061,0.111,0.092,0.227,0.092,0.35c-0.016,0.075-0.042,0.182-0.077,0.321
					c-0.036,0.138-0.079,0.28-0.13,0.421l-2.113,5.533c-0.182,0.486-0.36,0.868-0.535,1.145c-0.174,0.277-0.404,0.491-0.691,0.638
					c-0.287,0.149-0.674,0.223-1.161,0.223c-0.475,0-0.831-0.051-1.068-0.154c-0.238-0.104-0.356-0.292-0.356-0.565
					c0-0.185,0.056-0.33,0.169-0.43c0.112-0.101,0.28-0.152,0.501-0.152c0.087,0,0.173,0.012,0.256,0.037
					c0.103,0.023,0.192,0.035,0.267,0.035c0.186,0,0.333-0.027,0.44-0.084c0.106-0.055,0.202-0.151,0.288-0.288
					C235.211,485.522,235.31,485.321,235.42,485.056z"/>
			</g>
			<g>
				<path style="fill:#FFFFFF;" d="M258.897,478.405h0.386v-0.486c0-0.509,0.062-0.911,0.192-1.211
					c0.128-0.299,0.347-0.516,0.654-0.653c0.307-0.135,0.727-0.204,1.26-0.204c0.95,0,1.42,0.229,1.42,0.697
					c0,0.149-0.049,0.278-0.15,0.384c-0.096,0.106-0.214,0.16-0.349,0.16c-0.062,0-0.174-0.012-0.329-0.037
					c-0.148-0.021-0.283-0.035-0.389-0.035c-0.292,0-0.479,0.088-0.566,0.259c-0.079,0.172-0.122,0.418-0.122,0.74v0.386h0.396
					c0.619,0,0.926,0.186,0.926,0.56c0,0.262-0.079,0.431-0.245,0.503c-0.164,0.071-0.39,0.107-0.68,0.107h-0.396v4.294
					c0,0.319-0.075,0.563-0.231,0.73c-0.151,0.17-0.346,0.254-0.589,0.254c-0.229,0-0.419-0.084-0.574-0.254
					c-0.153-0.167-0.228-0.411-0.228-0.73v-4.294h-0.446c-0.243,0-0.427-0.052-0.558-0.164c-0.131-0.107-0.197-0.25-0.197-0.424
					C258.082,478.597,258.354,478.405,258.897,478.405"/>
				<path style="fill:#FFFFFF;" d="M264.203,482.514v1.355c0,0.327-0.083,0.574-0.234,0.737c-0.155,0.166-0.349,0.247-0.586,0.247
					c-0.239,0-0.43-0.082-0.579-0.25c-0.148-0.165-0.225-0.41-0.225-0.734v-4.514c0-0.729,0.262-1.093,0.788-1.093
					c0.271,0,0.465,0.084,0.583,0.255c0.118,0.171,0.184,0.421,0.198,0.755c0.192-0.334,0.39-0.584,0.593-0.755
					c0.208-0.171,0.477-0.255,0.819-0.255c0.343,0,0.67,0.084,0.991,0.255c0.322,0.171,0.482,0.398,0.482,0.678
					c0,0.197-0.069,0.363-0.204,0.488c-0.137,0.131-0.284,0.195-0.441,0.195c-0.062,0-0.207-0.039-0.433-0.112
					c-0.228-0.071-0.43-0.108-0.602-0.108c-0.237,0-0.433,0.064-0.582,0.186c-0.151,0.128-0.269,0.311-0.353,0.554
					c-0.081,0.247-0.137,0.541-0.17,0.878C264.217,481.614,264.203,482.027,264.203,482.514"/>
				<path style="fill:#FFFFFF;" d="M271.654,481.956h-3.171c0.006,0.367,0.078,0.694,0.222,0.974
					c0.147,0.279,0.337,0.491,0.578,0.635c0.24,0.142,0.502,0.212,0.793,0.212c0.194,0,0.371-0.021,0.531-0.07
					c0.159-0.043,0.315-0.116,0.466-0.213c0.151-0.095,0.287-0.199,0.415-0.313c0.126-0.109,0.292-0.26,0.494-0.449
					c0.084-0.071,0.203-0.109,0.355-0.109c0.168,0,0.301,0.046,0.406,0.139c0.104,0.092,0.152,0.219,0.152,0.386
					c0,0.147-0.056,0.317-0.167,0.512c-0.117,0.198-0.289,0.385-0.522,0.566c-0.234,0.178-0.524,0.33-0.873,0.446
					c-0.35,0.119-0.754,0.179-1.207,0.179c-1.044,0-1.852-0.295-2.429-0.889c-0.577-0.595-0.87-1.401-0.87-2.418
					c0-0.479,0.073-0.924,0.217-1.334c0.14-0.411,0.349-0.76,0.624-1.055c0.272-0.294,0.606-0.518,1.008-0.674
					c0.399-0.156,0.842-0.234,1.33-0.234c0.632,0,1.176,0.134,1.629,0.404c0.452,0.264,0.796,0.61,1.018,1.034
					c0.226,0.425,0.339,0.855,0.339,1.296c0,0.405-0.118,0.669-0.351,0.791C272.405,481.895,272.077,481.956,271.654,481.956
					 M268.482,481.034h2.938c-0.039-0.553-0.186-0.969-0.446-1.242c-0.261-0.276-0.599-0.413-1.025-0.413
					c-0.404,0-0.736,0.137-0.995,0.418C268.695,480.077,268.536,480.489,268.482,481.034"/>
				<path style="fill:#FFFFFF;" d="M278.395,481.956h-3.171c0.004,0.367,0.078,0.694,0.222,0.974
					c0.145,0.279,0.337,0.491,0.576,0.635c0.239,0.142,0.504,0.212,0.795,0.212c0.192,0,0.37-0.021,0.528-0.07
					c0.162-0.043,0.316-0.116,0.469-0.213c0.151-0.095,0.287-0.199,0.415-0.313c0.125-0.109,0.29-0.26,0.493-0.449
					c0.084-0.071,0.204-0.109,0.355-0.109c0.168,0,0.302,0.046,0.406,0.139c0.103,0.092,0.15,0.219,0.15,0.386
					c0,0.147-0.054,0.317-0.171,0.512c-0.111,0.198-0.285,0.385-0.519,0.566c-0.231,0.178-0.525,0.33-0.872,0.446
					c-0.349,0.119-0.755,0.179-1.209,0.179c-1.042,0-1.849-0.295-2.429-0.889c-0.577-0.595-0.868-1.401-0.868-2.418
					c0-0.479,0.073-0.924,0.217-1.334c0.142-0.411,0.349-0.76,0.622-1.055c0.272-0.294,0.608-0.518,1.009-0.674
					c0.399-0.156,0.844-0.234,1.331-0.234c0.63,0,1.174,0.134,1.633,0.404c0.45,0.264,0.791,0.61,1.013,1.034
					c0.225,0.425,0.341,0.855,0.341,1.296c0,0.405-0.12,0.669-0.351,0.791C279.146,481.895,278.818,481.956,278.395,481.956
					 M275.225,481.034h2.938c-0.04-0.553-0.19-0.969-0.447-1.242c-0.263-0.276-0.601-0.413-1.027-0.413
					c-0.403,0-0.735,0.137-0.995,0.418C275.436,480.077,275.277,480.489,275.225,481.034"/>
				<path style="fill:#FFFFFF;" d="M281.945,479.173v0.194c0.304-0.375,0.621-0.651,0.953-0.828
					c0.324-0.178,0.699-0.267,1.114-0.267c0.497,0,0.959,0.13,1.379,0.386c0.419,0.259,0.749,0.635,0.993,1.129
					c0.244,0.497,0.366,1.081,0.366,1.758c0,0.497-0.07,0.957-0.21,1.376c-0.14,0.418-0.336,0.767-0.581,1.05
					c-0.246,0.281-0.535,0.501-0.868,0.654c-0.339,0.151-0.695,0.227-1.08,0.227c-0.461,0-0.853-0.093-1.166-0.28
					c-0.314-0.182-0.614-0.458-0.901-0.816v2.433c0,0.71-0.26,1.069-0.778,1.069c-0.306,0-0.505-0.092-0.607-0.275
					c-0.095-0.187-0.146-0.452-0.146-0.807v-6.996c0-0.309,0.066-0.537,0.2-0.692c0.134-0.15,0.32-0.228,0.553-0.228
					c0.231,0,0.416,0.078,0.56,0.234C281.874,478.654,281.945,478.877,281.945,479.173 M285.123,481.528
					c0-0.428-0.067-0.796-0.197-1.102c-0.131-0.308-0.312-0.542-0.541-0.705c-0.23-0.164-0.489-0.248-0.77-0.248
					c-0.446,0-0.824,0.178-1.13,0.527c-0.308,0.354-0.462,0.872-0.462,1.558c0,0.642,0.153,1.146,0.46,1.504
					c0.305,0.358,0.679,0.536,1.133,0.536c0.268,0,0.519-0.079,0.748-0.233c0.232-0.158,0.416-0.392,0.552-0.704
					C285.053,482.349,285.123,481.97,285.123,481.528"/>
				<path style="fill:#FFFFFF;" d="M288.383,477.507c-0.226,0-0.418-0.071-0.577-0.209c-0.162-0.139-0.242-0.333-0.242-0.585
					c0-0.23,0.082-0.419,0.248-0.569c0.164-0.147,0.354-0.222,0.571-0.222c0.212,0,0.397,0.067,0.559,0.2
					c0.162,0.137,0.244,0.334,0.244,0.591c0,0.25-0.079,0.444-0.236,0.585C288.79,477.436,288.602,477.507,288.383,477.507
					 M289.185,479.181v4.689c0,0.322-0.077,0.568-0.231,0.732c-0.156,0.168-0.35,0.25-0.588,0.25c-0.238,0-0.428-0.084-0.58-0.254
					c-0.146-0.173-0.222-0.416-0.222-0.729v-4.642c0-0.319,0.076-0.559,0.222-0.721c0.152-0.165,0.342-0.245,0.58-0.245
					c0.238,0,0.432,0.079,0.588,0.245C289.108,478.668,289.185,478.895,289.185,479.181"/>
				<path style="fill:#FFFFFF;" d="M294.41,484.113l-1.428-2.354l-0.88,0.83v1.291c0,0.312-0.083,0.551-0.248,0.718
					c-0.16,0.17-0.354,0.254-0.566,0.254c-0.249,0-0.447-0.082-0.588-0.25c-0.142-0.165-0.215-0.41-0.215-0.734v-6.915
					c0-0.358,0.071-0.632,0.207-0.821c0.139-0.19,0.341-0.283,0.596-0.283c0.25,0,0.446,0.086,0.593,0.257
					c0.146,0.169,0.221,0.421,0.221,0.751v3.933l1.823-1.914c0.227-0.235,0.396-0.4,0.517-0.486c0.118-0.087,0.262-0.13,0.431-0.13
					c0.204,0,0.371,0.065,0.51,0.193c0.132,0.129,0.2,0.291,0.2,0.483c0,0.237-0.221,0.555-0.659,0.951l-0.861,0.789l1.662,2.614
					c0.121,0.196,0.212,0.34,0.265,0.441c0.053,0.1,0.081,0.2,0.081,0.289c0,0.258-0.071,0.459-0.213,0.61
					c-0.14,0.148-0.327,0.221-0.554,0.221c-0.198,0-0.352-0.051-0.458-0.16C294.739,484.585,294.591,484.391,294.41,484.113"/>
				<path style="fill:#FFFFFF;" d="M297.932,484.853c-0.245,0-0.455-0.079-0.634-0.238c-0.178-0.156-0.268-0.379-0.268-0.665
					c0-0.241,0.086-0.449,0.256-0.622c0.172-0.174,0.38-0.262,0.63-0.262c0.248,0,0.46,0.087,0.639,0.258
					c0.175,0.172,0.264,0.383,0.264,0.626c0,0.283-0.089,0.505-0.264,0.662C298.376,484.774,298.169,484.853,297.932,484.853"/>
				<path style="fill:#FFFFFF;" d="M305.994,482.846c0,0.2-0.06,0.417-0.182,0.646c-0.12,0.231-0.305,0.449-0.554,0.656
					c-0.247,0.207-0.557,0.376-0.934,0.502c-0.375,0.126-0.8,0.192-1.269,0.192c-1.004,0-1.786-0.294-2.349-0.876
					c-0.56-0.585-0.841-1.368-0.841-2.35c0-0.667,0.128-1.254,0.387-1.765c0.255-0.509,0.627-0.905,1.113-1.184
					c0.487-0.28,1.072-0.419,1.746-0.419c0.421,0,0.805,0.061,1.158,0.184c0.35,0.122,0.645,0.282,0.891,0.474
					c0.242,0.197,0.428,0.402,0.556,0.62c0.129,0.22,0.192,0.425,0.192,0.617c0,0.192-0.071,0.357-0.214,0.492
					c-0.147,0.134-0.322,0.203-0.524,0.203c-0.137,0-0.248-0.035-0.338-0.104c-0.09-0.07-0.19-0.181-0.299-0.339
					c-0.198-0.299-0.404-0.526-0.622-0.674c-0.214-0.152-0.488-0.226-0.821-0.226c-0.476,0-0.865,0.186-1.158,0.561
					c-0.292,0.372-0.439,0.887-0.439,1.534c0,0.305,0.039,0.587,0.114,0.842c0.073,0.255,0.182,0.472,0.325,0.653
					c0.144,0.179,0.315,0.315,0.516,0.409c0.203,0.096,0.425,0.141,0.665,0.141c0.326,0,0.604-0.075,0.836-0.225
					c0.235-0.151,0.439-0.38,0.616-0.689c0.099-0.182,0.204-0.324,0.318-0.427c0.114-0.102,0.256-0.156,0.422-0.156
					c0.198,0,0.362,0.077,0.491,0.227C305.927,482.516,305.994,482.677,305.994,482.846"/>
				<path style="fill:#FFFFFF;" d="M312.988,481.559c0,0.481-0.076,0.928-0.222,1.337c-0.154,0.408-0.37,0.758-0.656,1.049
					c-0.284,0.293-0.626,0.518-1.02,0.675c-0.4,0.155-0.843,0.234-1.337,0.234c-0.491,0-0.933-0.08-1.326-0.239
					c-0.389-0.156-0.732-0.384-1.016-0.676c-0.288-0.298-0.505-0.646-0.657-1.048c-0.143-0.402-0.219-0.846-0.219-1.332
					c0-0.491,0.078-0.941,0.224-1.349c0.151-0.409,0.368-0.757,0.649-1.046c0.282-0.289,0.621-0.511,1.019-0.669
					c0.402-0.156,0.844-0.234,1.326-0.234c0.49,0,0.936,0.078,1.337,0.239c0.399,0.157,0.739,0.384,1.027,0.674
					c0.286,0.297,0.502,0.643,0.65,1.045C312.913,480.626,312.988,481.07,312.988,481.559 M311.36,481.559
					c0-0.662-0.146-1.176-0.436-1.543c-0.289-0.372-0.681-0.555-1.171-0.555c-0.317,0-0.597,0.082-0.839,0.246
					c-0.242,0.164-0.425,0.406-0.556,0.728c-0.131,0.321-0.197,0.696-0.197,1.124c0,0.424,0.064,0.792,0.193,1.108
					c0.13,0.319,0.314,0.561,0.554,0.729c0.241,0.167,0.522,0.253,0.845,0.253c0.49,0,0.882-0.185,1.171-0.557
					C311.214,482.722,311.36,482.209,311.36,481.559"/>
				<path style="fill:#FFFFFF;" d="M319.17,481.678v2.154c0,0.342-0.075,0.594-0.231,0.767c-0.156,0.17-0.357,0.255-0.611,0.255
					c-0.245,0-0.446-0.085-0.595-0.255c-0.154-0.173-0.232-0.425-0.232-0.767v-2.582c0-0.408-0.013-0.726-0.04-0.953
					c-0.029-0.221-0.105-0.41-0.227-0.552c-0.123-0.147-0.318-0.22-0.582-0.22c-0.532,0-0.879,0.181-1.048,0.551
					c-0.167,0.36-0.254,0.883-0.254,1.567v2.189c0,0.336-0.076,0.591-0.226,0.765c-0.156,0.171-0.355,0.258-0.603,0.258
					c-0.247,0-0.448-0.087-0.604-0.258c-0.157-0.173-0.235-0.428-0.235-0.765v-4.637c0-0.306,0.07-0.538,0.209-0.694
					c0.143-0.16,0.329-0.239,0.556-0.239c0.223,0,0.407,0.077,0.557,0.222c0.148,0.149,0.222,0.354,0.222,0.615v0.153
					c0.283-0.334,0.584-0.582,0.903-0.738c0.323-0.162,0.676-0.241,1.071-0.241c0.407,0,0.757,0.082,1.049,0.244
					c0.294,0.163,0.533,0.409,0.725,0.735c0.275-0.33,0.568-0.577,0.881-0.738c0.313-0.161,0.658-0.241,1.039-0.241
					c0.441,0,0.826,0.089,1.146,0.262c0.319,0.174,0.558,0.425,0.717,0.747c0.138,0.295,0.206,0.756,0.206,1.385v3.164
					c0,0.342-0.076,0.594-0.229,0.767c-0.154,0.17-0.359,0.255-0.612,0.255c-0.247,0-0.446-0.087-0.603-0.258
					c-0.156-0.173-0.235-0.428-0.235-0.765v-2.726c0-0.349-0.015-0.627-0.043-0.836c-0.029-0.211-0.11-0.388-0.239-0.529
					c-0.133-0.142-0.332-0.215-0.596-0.215c-0.214,0-0.416,0.066-0.609,0.192c-0.192,0.124-0.342,0.298-0.45,0.508
					C319.232,480.5,319.17,480.984,319.17,481.678"/>
			</g>
			<g>
				<path style="fill:#FFFFFF;" d="M243.73,481.166c-0.001-0.003-0.001-0.006-0.001-0.011
					C243.728,481.16,243.728,481.163,243.73,481.166z"/>
				<path style="fill:#FFFFFF;" d="M243.811,481.684c0.001,0,0.001,0,0.001,0c-0.031-0.148-0.055-0.294-0.074-0.439
					C243.758,481.391,243.782,481.538,243.811,481.684z"/>
				<path style="fill:#FFFFFF;" d="M244.348,483.188c-0.004-0.006-0.007-0.013-0.011-0.021
					C244.341,483.175,244.344,483.182,244.348,483.188z"/>
				<path style="fill:#FFFFFF;" d="M244.297,483.088c-0.014-0.028-0.027-0.056-0.041-0.084
					C244.269,483.034,244.283,483.061,244.297,483.088z"/>
				<path style="fill:#FFFFFF;" d="M243.962,482.263c0.079,0.25,0.175,0.493,0.286,0.724c-0.113-0.236-0.206-0.479-0.284-0.724
					C243.964,482.263,243.963,482.263,243.962,482.263z"/>
				<path style="fill:#FFFFFF;" d="M250.003,474.956c0.313,0,0.544,0.025,0.809,0.07l0.075-0.477c0,0-0.732-0.225-1.694-0.147
					l-0.076-0.259c0.299-0.063,0.524-0.329,0.524-0.646c0-0.364-0.296-0.659-0.661-0.659c-0.364,0-0.66,0.295-0.66,0.659
					c0,0.317,0.224,0.583,0.522,0.646l0.084,0.289c-1.021,0.14-1.835,0.539-1.835,0.539l0.144,0.441
					c0.618-0.206,1.154-0.331,1.64-0.383C249.353,474.978,249.711,474.956,250.003,474.956z"/>
				<path style="fill:#FFFFFF;" d="M244.336,477.367l0.004-0.005c0.024-0.031,0.047-0.06,0.071-0.089l-0.196-0.141l-0.305-0.223
					c-0.017,0.024-0.497,0.465-0.876,1.28c-0.016-0.026-0.035-0.051-0.056-0.074c-0.113-0.124-0.272-0.187-0.474-0.184
					c-0.003,0-0.006,0-0.009,0c-0.125,0-0.211-0.042-0.267-0.092c0.056-0.071,0.089-0.16,0.089-0.258
					c0-0.23-0.187-0.418-0.418-0.418c-0.23,0-0.418,0.188-0.418,0.418c0,0.231,0.187,0.418,0.418,0.418
					c0.036,0,0.071-0.006,0.104-0.013c0.103,0.114,0.266,0.214,0.505,0.209c0.123-0.001,0.213,0.031,0.273,0.097
					c0.069,0.076,0.093,0.185,0.1,0.267c-0.001,0.001-0.001,0.003-0.002,0.003c-0.272,0.743-0.194,1.669-0.194,1.669l0.661,0.026
					c0.013-0.337,0.062-0.927,0.232-1.394C243.907,477.957,244.319,477.391,244.336,477.367z"/>
				<path style="fill:#FFFFFF;" d="M255.753,475.508c-0.23,0-0.418,0.187-0.418,0.418c0,0.036,0.005,0.07,0.015,0.103
					c-0.115,0.104-0.214,0.267-0.211,0.507c0.002,0.123-0.03,0.212-0.096,0.273c-0.053,0.047-0.12,0.072-0.185,0.088
					c-0.492-0.689-1.098-1.11-1.098-1.11l-0.474,0.508c0.358,0.326,0.725,0.734,1.08,1.244c0.246,0.352,0.499,0.806,0.71,1.259
					l0.64-0.304c0,0-0.292-0.722-0.704-1.37c0.071-0.025,0.143-0.064,0.207-0.12c0.125-0.113,0.187-0.273,0.183-0.474
					c-0.001-0.13,0.042-0.218,0.093-0.276c0.071,0.054,0.16,0.089,0.257,0.089c0.232,0,0.419-0.187,0.419-0.418
					C256.171,475.695,255.985,475.508,255.753,475.508z"/>
				<path style="fill:#FFFFFF;" d="M254.092,481.259c-0.881,0.429-2.33,0.996-4.238,1.262c-0.749,0.104-1.475,0.142-2.143,0.142
					c-0.869,0-1.637-0.065-2.227-0.139c-0.673-0.085-1.198-0.189-1.52-0.261c0.077,0.245,0.171,0.488,0.284,0.724
					c0.002,0.006,0.005,0.013,0.008,0.017c0.013,0.027,0.027,0.056,0.041,0.084c0.013,0.027,0.027,0.054,0.04,0.079
					c0.004,0.007,0.007,0.015,0.011,0.021c0.189,0.356,0.417,0.684,0.675,0.968c0.9,0.984,1.817,1.14,1.826,1.141l0.014,0.002
					l0.014,0.005c0.008,0.003,0.821,0.266,2.057,0.266c1.216,0,2.409-0.245,3.546-0.729c0.842-0.431,1.639-1.085,2.034-1.669
					c0.305-0.452,0.525-0.933,0.656-1.434c0.07-0.266,0.124-0.692,0.092-1.141C255.014,480.764,254.622,481.001,254.092,481.259z"/>
				<path style="fill:#FFFFFF;" d="M244.619,477.576c-0.026,0.037-0.408,0.578-0.709,1.408c-0.226,0.622-0.216,1.527-0.216,1.537
					v0.002c0,0.212,0.012,0.423,0.035,0.632c0,0.005,0,0.008,0.001,0.011c0.002,0.027,0.007,0.053,0.009,0.079
					c0.019,0.145,0.043,0.291,0.074,0.439c0.438,0.111,3.049,0.72,5.968,0.314c1.829-0.254,3.218-0.795,4.062-1.204
					c0.701-0.34,1.151-0.648,1.325-0.774c-0.173-0.643-0.651-1.65-1.089-2.279c-1.253-1.791-2.604-2.25-3.298-2.365
					c-0.265-0.043-0.477-0.068-0.777-0.068c-0.279,0-0.626,0.023-1.09,0.071c-0.464,0.048-0.982,0.17-1.583,0.372
					c-0.842,0.282-1.605,0.725-2.204,1.28l-0.02,0.019C245.018,477.132,244.832,477.304,244.619,477.576z M252.287,477.159
					c0.6,0,1.089,0.488,1.089,1.09c0,0.601-0.489,1.09-1.089,1.09c-0.601,0-1.089-0.489-1.089-1.09
					C251.198,477.647,251.686,477.159,252.287,477.159z M247.136,477.116c0.973,0,1.761,0.789,1.761,1.761
					c0,0.972-0.788,1.759-1.761,1.759c-0.972,0-1.76-0.787-1.76-1.759C245.376,477.904,246.164,477.116,247.136,477.116z"/>
			</g>
		</g>
	</g>
</g>
</svg>
